<?xml version="1.0" encoding="UTF-8" standalone="no" ?>
<!DOCTYPE svg PUBLIC "-//W3C//DTD SVG 1.1//EN" "http://www.w3.org/Graphics/SVG/1.1/DTD/svg11.dtd">
<svg xmlns="http://www.w3.org/2000/svg" xmlns:xlink="http://www.w3.org/1999/xlink" version="1.1" width="1000" height="1000" viewBox="0 0 500 500" xml:space="preserve">
<desc>Created with Fabric.js 4.6.0</desc>
<defs>
</defs>
<g transform="matrix(0.85 1.25 -1.25 0.85 98.33 250)" id="v8zFZJHcDDM4anX4sl5kU"  >
<path style="stroke: rgb(76,103,180); stroke-width: 0; stroke-dasharray: none; stroke-linecap: butt; stroke-dashoffset: 0; stroke-linejoin: miter; stroke-miterlimit: 4; fill: rgb(53,136,229); fill-rule: nonzero; opacity: 1;" vector-effect="non-scaling-stroke"  transform=" translate(0, 0)" d="M -100.5 -57.86146 C -100.5 -81.41007 -81.41008 -100.5 -57.86146 -100.5 L 57.86146 -100.5 L 57.86146 -100.5 C 81.41007 -100.5 100.5 -81.41008 100.5 -57.86146 L 100.5 57.86146 L 100.5 57.86146 C 100.5 81.41007 81.41008 100.5 57.86146 100.5 L -57.86146 100.5 L -57.86146 100.5 C -81.41007 100.5 -100.5 81.41008 -100.5 57.86146 z" stroke-linecap="round" />
</g>
<g transform="matrix(-0.57 1.28 -1.28 -0.57 447.48 257.26)" id="6rWNdwHcOAl-p5MbXAHI8"  >
<path style="stroke: rgb(13,234,179); stroke-width: 0; stroke-dasharray: none; stroke-linecap: butt; stroke-dashoffset: 0; stroke-linejoin: miter; stroke-miterlimit: 4; fill: rgb(186,200,134); fill-rule: nonzero; opacity: 1;" vector-effect="non-scaling-stroke"  transform=" translate(0, 0)" d="M -84.5 -48.64968 C -84.5 -68.44926 -68.44927 -84.49999 -48.64969 -84.49999 L 48.64968 -84.49999 L 48.64968 -84.49999 C 68.44926 -84.49999 84.49999 -68.44926 84.49999 -48.64968 L 84.49999 48.64969 L 84.49999 48.64969 C 84.49999 68.44927 68.44926 84.5 48.64968 84.5 L -48.64969 84.5 L -48.64969 84.5 C -68.44927 84.5 -84.5 68.44927 -84.5 48.64969 z" stroke-linecap="round" />
</g>
<g transform="matrix(1.84 -0.94 0.94 1.84 290.32 246.87)" id="mbiJgO2tSqjBP53geFdEA"  >
<path style="stroke: rgb(128,210,218); stroke-width: 0; stroke-dasharray: none; stroke-linecap: butt; stroke-dashoffset: 0; stroke-linejoin: miter; stroke-miterlimit: 4; fill: rgb(186,200,245); fill-rule: nonzero; opacity: 1;" vector-effect="non-scaling-stroke"  transform=" translate(0, 0)" d="M -50.00025 -28.78705 C -50.00025 -40.50278 -40.50278 -50.00025 -28.78705 -50.00025 L 28.787039999999998 -50.00025 L 28.787039999999998 -50.00025 C 40.50277 -50.00025 50.00024 -40.50278 50.00024 -28.78705 L 50.00024 28.787039999999998 L 50.00024 28.787039999999998 C 50.00024 40.50277 40.50277 50.00024 28.787039999999998 50.00024 L -28.78705 50.00024 L -28.78705 50.00024 C -40.50278 50.00024 -50.00025 40.50277 -50.00025 28.787039999999998 z" stroke-linecap="round" />
</g>
</svg>